<?xml version="1.0" encoding="utf-8"?>
<!-- Generator: Adobe Illustrator 24.0.1, SVG Export Plug-In . SVG Version: 6.00 Build 0)  -->
<svg version="1.1" id="INPX_LOGO" xmlns="http://www.w3.org/2000/svg" xmlns:xlink="http://www.w3.org/1999/xlink" x="0px" y="0px"
	 viewBox="0 0 834.2 298.6" style="enable-background:new 0 0 834.2 298.6;" xml:space="preserve">
<style type="text/css">
	.st0{fill:#3C3C3C;}
	.st1{fill:#45C2CC;}
	.st2{fill:#16A2DC;}
	.st3{fill:#F58220;}
	.st4{fill:#99CA3C;}
	.st5{fill:#7E93A7;}
	.st6{fill-rule:evenodd;clip-rule:evenodd;fill:#3C3C3C;}
	.st7{fill-rule:evenodd;clip-rule:evenodd;fill:#16A2DC;}
</style>
<g>
	<g id="inpixon">
		<polygon class="st0" points="330,132.7 316.3,113 295.3,113 319.4,147.9 295.3,182.8 316.3,182.8 330,163.1 340.5,147.9 		"/>
		<polygon class="st0" points="332.6,132.7 341.8,146 364.6,113 343.6,113 331.3,130.8 		"/>
		<polygon class="st0" points="341.8,149.8 332.6,163.1 331.3,165 343.6,182.8 364.6,182.8 		"/>
		<path class="st0" d="M107.2,96.7c0,13.4-20.3,13.4-20.3,0C86.9,83.3,107.2,83.3,107.2,96.7z M88.4,113v69.8h17.2V113H88.4z"/>
		<path class="st0" d="M165.3,182.8v-36.4c0-10.6-5.8-18.6-16.8-18.6c-10.6,0-17.8,8.9-17.8,19.5v35.5h-17.1v-69.7H129l1.1,9.4
			c7.1-6.9,14.1-10.4,22.9-10.4c16.4,0,29.5,12.3,29.5,34.1v36.5H165.3L165.3,182.8z"/>
		<path class="st0" d="M190.2,211.8v-98.6h16.1l1.1,9.6c5.4-7.8,14.7-11.1,22.6-11.1c21.4,0,35.7,15.9,35.7,36.4
			c0,20.3-12.8,36.4-35.1,36.4c-7.3,0-18.2-2.3-23.1-9.9v37.2L190.2,211.8L190.2,211.8z M248.5,148.1c0-10.9-7.3-19.8-19.7-19.8
			c-12.4,0-19.8,8.9-19.8,19.8c0,10.9,8,19.8,19.8,19.8C240.5,167.8,248.5,159,248.5,148.1z"/>
		<path class="st0" d="M290.1,96.7c0,13.4-20.3,13.4-20.3,0C269.8,83.3,290.1,83.3,290.1,96.7z M271.4,113v69.8h17.2V113H271.4z"/>
		<path class="st0" d="M493.1,182.8v-36.4c0-10.6-5.8-18.6-16.8-18.6c-10.6,0-17.8,8.9-17.8,19.5v35.5h-17.1v-69.7h15.4l1.1,9.4
			c7.1-6.9,14.1-10.4,22.9-10.4c16.4,0,29.5,12.3,29.5,34.1v36.5H493.1L493.1,182.8z"/>
		<g>
			<path class="st1" d="M389.2,159.6c0,0.3-0.2,0.5-0.5,0.5h-3.4c-0.3,0-0.5-0.2-0.5-0.5v-12.4c0-0.3,0.2-0.5,0.5-0.5h3.4
				c0.3,0,0.5,0.2,0.5,0.5V159.6z"/>
			<path class="st2" d="M395.8,156.6c0,0.3-0.2,0.5-0.5,0.5h-3.4c-0.3,0-0.5-0.2-0.5-0.5v-20c0-0.3,0.2-0.5,0.5-0.5h3.4
				c0.3,0,0.5,0.2,0.5,0.5V156.6z"/>
			<path class="st3" d="M402.4,159.6c0,0.3-0.2,0.5-0.5,0.5h-3.4c-0.3,0-0.5-0.2-0.5-0.5v-17.2c0-0.3,0.2-0.5,0.5-0.5h3.4
				c0.3,0,0.5,0.2,0.5,0.5V159.6z"/>
			<path class="st4" d="M409,163.1c0,0.3-0.2,0.5-0.5,0.5h-3.4c-0.3,0-0.5-0.2-0.5-0.5v-21.5c0-0.3,0.2-0.5,0.5-0.5h3.4
				c0.3,0,0.5,0.2,0.5,0.5V163.1z"/>
			<path class="st5" d="M415.6,157.4c0,0.3-0.2,0.5-0.5,0.5h-3.4c-0.3,0-0.5-0.2-0.5-0.5V148c0-0.3,0.2-0.5,0.5-0.5h3.4
				c0.3,0,0.5,0.2,0.5,0.5V157.4z"/>
		</g>
		<g>
			<path class="st6" d="M436.4,143.6c-0.7-5.6-2.7-10.7-5.7-15.1l-8.4,9.9c0.9,1.9,1.6,4.1,2,6.3c0.2,1.4,0.3,2.8,0.3,4
				c0,4.4-1,8.3-3,11.9c-1.3,2.4-2.8,4.6-4.6,6.7c-4.7,5.7-10.1,10.8-15.7,15.7c-0.9,0.8-1.5,0.8-2.4,0c-6-5.3-11.9-10.8-16.8-17.2
				c-3-3.9-5.2-8.1-6.1-13c-0.9-5,0-10,2.1-14.3l-8.4-10c-6,9.1-7.9,20.8-4,32.1c2.1,6.1,5.8,11.3,10,16.1c6.9,8,14.8,15,23,21.5
				c1.1,0.9,1.8,0.8,2.9,0c6.4-5.1,12.5-10.5,18.2-16.3c3.4-3.5,6.5-7.1,9.3-11c4.7-6.7,7.5-14.1,7.5-22.4
				C436.6,146.9,436.6,145.2,436.4,143.6z"/>
			<path class="st7" d="M394.1,112.6c-9,1.6-16.5,6.2-21.8,12.5l2.9,3.5l1.6,1.9l0.3-0.3c0.2-0.2,0.4-0.4,0.5-0.7l0.2-0.2v0
				c4.6-5.3,11-8.9,17.7-9.9c1.5-0.2,3.1-0.4,4.6-0.4c9.1,0,17.7,4,23.4,11.1l0.3,0.4l3.5-4.1l1-1.2
				C420.1,115.6,407.3,110.4,394.1,112.6z"/>
			<path class="st7" d="M421.6,131.5c-5.2-6.4-13.1-10.2-21.5-10.2c-1.4,0-2.9,0.1-4.2,0.3c-6.1,1-12,4.3-16.3,9.2l-0.2,0.2
				c-0.2,0.2-0.3,0.4-0.5,0.6l-0.5,0.7l2.1,2.4c3.7-5.2,9.4-9,15.9-10c9.3-1.5,18.5,2.6,23.8,10l2.1-2.4L421.6,131.5z"/>
		</g>
	</g>
	<g>
		<path class="st0" d="M537,140.4v-28.2h4.6v28.2H537z"/>
		<path class="st0" d="M566.9,140.4h-4.5v-13.1c0-1.6-0.3-2.9-1-3.7c-0.7-0.8-1.7-1.2-3.2-1.2c-1.9,0-3.3,0.6-4.2,1.7
			s-1.3,3-1.3,5.7v10.6h-4.5v-21.3h3.5l0.6,2.8h0.2c0.6-1,1.6-1.8,2.7-2.4c1.2-0.6,2.5-0.8,3.9-0.8c5.1,0,7.7,2.6,7.7,7.8V140.4z"/>
		<path class="st0" d="M580,140.8c-2.7,0-4.7-1-6.2-2.9s-2.2-4.6-2.2-8.1c0-3.5,0.8-6.2,2.3-8.2c1.5-1.9,3.6-2.9,6.3-2.9
			c2.8,0,4.9,1,6.4,3.1h0.2c-0.2-1.5-0.3-2.7-0.3-3.6v-7.8h4.5v30h-3.5l-0.8-2.8h-0.2C584.9,139.7,582.8,140.8,580,140.8z
			 M581.2,137.1c1.9,0,3.2-0.5,4.1-1.6c0.8-1,1.3-2.7,1.3-5.1v-0.6c0-2.7-0.4-4.6-1.3-5.7c-0.9-1.1-2.2-1.7-4.1-1.7
			c-1.6,0-2.8,0.6-3.7,1.9c-0.9,1.3-1.3,3.1-1.3,5.5c0,2.4,0.4,4.2,1.3,5.4C578.3,136.5,579.5,137.1,581.2,137.1z"/>
		<path class="st0" d="M615.9,129.7c0,3.5-0.9,6.2-2.7,8.2c-1.8,2-4.3,2.9-7.5,2.9c-2,0-3.8-0.4-5.3-1.3c-1.5-0.9-2.7-2.2-3.5-3.9
			c-0.8-1.7-1.2-3.6-1.2-5.9c0-3.5,0.9-6.2,2.7-8.1s4.3-2.9,7.5-2.9c3.1,0,5.5,1,7.3,3C615,123.7,615.9,126.3,615.9,129.7z
			 M600.4,129.7c0,4.9,1.8,7.4,5.5,7.4c3.6,0,5.4-2.5,5.4-7.4c0-4.9-1.8-7.3-5.4-7.3c-1.9,0-3.3,0.6-4.1,1.9
			C600.8,125.5,600.4,127.3,600.4,129.7z"/>
		<path class="st0" d="M639.6,129.7c0,3.5-0.9,6.2-2.7,8.2c-1.8,2-4.3,2.9-7.5,2.9c-2,0-3.8-0.4-5.3-1.3c-1.5-0.9-2.7-2.2-3.5-3.9
			c-0.8-1.7-1.2-3.6-1.2-5.9c0-3.5,0.9-6.2,2.7-8.1s4.3-2.9,7.5-2.9c3.1,0,5.5,1,7.3,3C638.7,123.7,639.6,126.3,639.6,129.7z
			 M624.1,129.7c0,4.9,1.8,7.4,5.5,7.4c3.6,0,5.4-2.5,5.4-7.4c0-4.9-1.8-7.3-5.4-7.3c-1.9,0-3.3,0.6-4.1,1.9
			C624.5,125.5,624.1,127.3,624.1,129.7z"/>
		<path class="st0" d="M655.2,118.7c0.9,0,1.7,0.1,2.3,0.2l-0.4,4.2c-0.6-0.2-1.3-0.2-2-0.2c-1.8,0-3.3,0.6-4.4,1.8
			c-1.1,1.2-1.7,2.7-1.7,4.6v11.1h-4.5v-21.3h3.5l0.6,3.8h0.2c0.7-1.3,1.6-2.3,2.8-3C652.7,119.1,653.9,118.7,655.2,118.7z"/>
		<path class="st0" d="M537,182.6v-28.2h4.6v28.2H537z"/>
		<path class="st0" d="M566.9,182.6h-4.5v-13.1c0-1.6-0.3-2.9-1-3.7c-0.7-0.8-1.7-1.2-3.2-1.2c-1.9,0-3.3,0.6-4.2,1.7
			s-1.3,3-1.3,5.7v10.6h-4.5v-21.3h3.5l0.6,2.8h0.2c0.6-1,1.6-1.8,2.7-2.4c1.2-0.6,2.5-0.8,3.9-0.8c5.1,0,7.7,2.6,7.7,7.8V182.6z"/>
		<path class="st0" d="M580.7,179.4c1.1,0,2.2-0.2,3.3-0.5v3.4c-0.5,0.2-1.1,0.4-1.9,0.5c-0.8,0.1-1.6,0.2-2.5,0.2
			c-4.3,0-6.4-2.3-6.4-6.8v-11.5h-2.9v-2l3.1-1.7l1.5-4.5h2.8v4.7h6.1v3.4h-6.1v11.4c0,1.1,0.3,1.9,0.8,2.4
			C579.1,179.1,579.8,179.4,580.7,179.4z"/>
		<path class="st0" d="M597.2,183c-3.3,0-5.9-1-7.8-2.9c-1.9-1.9-2.8-4.6-2.8-8c0-3.5,0.9-6.2,2.6-8.2c1.7-2,4.1-3,7.1-3
			c2.8,0,5,0.9,6.7,2.6c1.6,1.7,2.4,4.1,2.4,7.1v2.4h-14.2c0.1,2.1,0.6,3.7,1.7,4.8c1.1,1.1,2.5,1.7,4.5,1.7c1.3,0,2.4-0.1,3.5-0.4
			c1.1-0.2,2.3-0.6,3.5-1.2v3.7c-1.1,0.5-2.2,0.9-3.4,1.1C600,182.9,598.7,183,597.2,183z M596.4,164.4c-1.4,0-2.6,0.5-3.5,1.4
			c-0.9,0.9-1.4,2.2-1.6,4h9.7c0-1.8-0.4-3.1-1.3-4C599,164.8,597.8,164.4,596.4,164.4z"/>
		<path class="st0" d="M614.8,182.6h-4.5v-30h4.5V182.6z"/>
		<path class="st0" d="M625.4,182.6h-4.5v-30h4.5V182.6z"/>
		<path class="st0" d="M631.2,155.7c0-0.8,0.2-1.4,0.7-1.9c0.4-0.4,1.1-0.7,1.9-0.7c0.8,0,1.4,0.2,1.9,0.7c0.4,0.4,0.7,1.1,0.7,1.9
			c0,0.8-0.2,1.4-0.7,1.8c-0.4,0.4-1.1,0.7-1.9,0.7c-0.8,0-1.5-0.2-1.9-0.7C631.4,157.1,631.2,156.5,631.2,155.7z M636,182.6h-4.5
			v-21.3h4.5V182.6z"/>
		<path class="st0" d="M660.1,161.3v2.5l-3.6,0.7c0.3,0.4,0.6,1,0.8,1.7c0.2,0.7,0.3,1.3,0.3,2.1c0,2.2-0.8,3.9-2.3,5.2
			c-1.5,1.3-3.6,1.9-6.3,1.9c-0.7,0-1.3,0-1.9-0.2c-1,0.6-1.5,1.3-1.5,2.1c0,0.5,0.2,0.9,0.7,1.1c0.5,0.2,1.3,0.4,2.5,0.4h3.7
			c2.3,0,4.1,0.5,5.4,1.5c1.2,1,1.8,2.4,1.8,4.3c0,2.4-1,4.3-3,5.6c-2,1.3-4.9,2-8.6,2c-2.9,0-5.1-0.5-6.6-1.5
			c-1.5-1-2.3-2.5-2.3-4.4c0-1.3,0.4-2.4,1.2-3.3c0.8-0.9,2-1.5,3.5-1.9c-0.6-0.3-1.1-0.7-1.5-1.2c-0.4-0.6-0.6-1.2-0.6-1.8
			c0-0.8,0.2-1.5,0.7-2c0.4-0.6,1.1-1.1,2-1.6c-1.1-0.5-2-1.2-2.7-2.3c-0.7-1.1-1-2.3-1-3.8c0-2.3,0.7-4.1,2.2-5.4
			c1.5-1.3,3.5-1.9,6.2-1.9c0.6,0,1.2,0,1.9,0.1c0.7,0.1,1.2,0.2,1.5,0.3H660.1z M643.3,186c0,1,0.4,1.7,1.3,2.3
			c0.9,0.5,2.1,0.8,3.7,0.8c2.5,0,4.3-0.4,5.5-1.1c1.2-0.7,1.8-1.6,1.8-2.8c0-0.9-0.3-1.6-1-2c-0.7-0.4-1.9-0.6-3.7-0.6h-3.4
			c-1.3,0-2.3,0.3-3.1,0.9C643.7,184.1,643.3,184.9,643.3,186z M645.3,168.2c0,1.3,0.3,2.4,1,3.1c0.7,0.7,1.7,1.1,3,1.1
			c2.6,0,3.9-1.4,3.9-4.2c0-1.4-0.3-2.5-1-3.2c-0.6-0.8-1.6-1.1-3-1.1c-1.3,0-2.3,0.4-3,1.1C645.6,165.7,645.3,166.8,645.3,168.2z"
			/>
		<path class="st0" d="M673,183c-3.3,0-5.9-1-7.8-2.9c-1.9-1.9-2.8-4.6-2.8-8c0-3.5,0.9-6.2,2.6-8.2c1.7-2,4.1-3,7.1-3
			c2.8,0,5,0.9,6.7,2.6c1.6,1.7,2.4,4.1,2.4,7.1v2.4H667c0.1,2.1,0.6,3.7,1.7,4.8c1.1,1.1,2.5,1.7,4.5,1.7c1.3,0,2.4-0.1,3.5-0.4
			c1.1-0.2,2.3-0.6,3.5-1.2v3.7c-1.1,0.5-2.2,0.9-3.4,1.1C675.7,182.9,674.4,183,673,183z M672.1,164.4c-1.4,0-2.6,0.5-3.5,1.4
			c-0.9,0.9-1.4,2.2-1.6,4h9.7c0-1.8-0.4-3.1-1.3-4C674.7,164.8,673.6,164.4,672.1,164.4z"/>
		<path class="st0" d="M704.7,182.6h-4.5v-13.1c0-1.6-0.3-2.9-1-3.7c-0.7-0.8-1.7-1.2-3.2-1.2c-1.9,0-3.3,0.6-4.2,1.7
			s-1.3,3-1.3,5.7v10.6H686v-21.3h3.5l0.6,2.8h0.2c0.6-1,1.6-1.8,2.7-2.4c1.2-0.6,2.5-0.8,3.9-0.8c5.1,0,7.7,2.6,7.7,7.8V182.6z"/>
		<path class="st0" d="M719.2,183c-3.2,0-5.7-0.9-7.4-2.8c-1.7-1.9-2.5-4.6-2.5-8.1c0-3.6,0.9-6.3,2.6-8.3c1.8-1.9,4.3-2.9,7.6-2.9
			c2.2,0,4.3,0.4,6.1,1.3l-1.4,3.6c-1.9-0.7-3.5-1.1-4.7-1.1c-3.7,0-5.5,2.4-5.5,7.3c0,2.4,0.5,4.2,1.4,5.4c0.9,1.2,2.3,1.8,4,1.8
			c2,0,3.9-0.5,5.7-1.5v4c-0.8,0.5-1.7,0.8-2.6,1C721.7,182.9,720.6,183,719.2,183z"/>
		<path class="st0" d="M739.1,183c-3.3,0-5.9-1-7.8-2.9c-1.9-1.9-2.8-4.6-2.8-8c0-3.5,0.9-6.2,2.6-8.2c1.7-2,4.1-3,7.1-3
			c2.8,0,5,0.9,6.7,2.6c1.6,1.7,2.4,4.1,2.4,7.1v2.4h-14.2c0.1,2.1,0.6,3.7,1.7,4.8c1.1,1.1,2.5,1.7,4.5,1.7c1.3,0,2.4-0.1,3.5-0.4
			c1.1-0.2,2.3-0.6,3.5-1.2v3.7c-1.1,0.5-2.2,0.9-3.4,1.1C741.9,182.9,740.6,183,739.1,183z M738.3,164.4c-1.4,0-2.6,0.5-3.5,1.4
			c-0.9,0.9-1.4,2.2-1.6,4h9.7c0-1.8-0.4-3.1-1.3-4C740.9,164.8,739.7,164.4,738.3,164.4z"/>
	</g>
</g>
</svg>
